<svg width="18" height="18" viewBox="0 0 18 18" fill="none" xmlns="http://www.w3.org/2000/svg">
<path d="M9.5379 1.50008C10.105 1.50014 10.6186 1.8154 10.9022 2.28035C11.04 2.50531 11.1322 2.78288 11.1092 3.07527C11.0939 3.30021 11.1624 3.52548 11.285 3.73543C11.6758 4.37274 12.5422 4.61275 13.2166 4.25301C13.9754 3.81801 14.934 4.07986 15.3709 4.82234L15.8836 5.70711C16.3281 6.44955 16.0835 7.4026 15.3172 7.83015C14.6657 8.21263 14.4352 9.06017 14.826 9.70515C14.9486 9.9076 15.0871 10.0796 15.3016 10.1846C15.5698 10.3271 15.777 10.5524 15.9227 10.7774C16.2063 11.2424 16.183 11.813 15.907 12.3155L15.3709 13.2149C15.0873 13.6949 14.5577 13.9952 14.0135 13.9952C13.7453 13.9951 13.4461 13.9195 13.201 13.7696C13.0019 13.6424 12.7721 13.5978 12.5272 13.5977C11.7684 13.5977 11.1322 14.2205 11.1092 14.963C11.109 15.8253 10.4036 16.5001 9.52228 16.5001H8.48029C7.59132 16.5001 6.88577 15.8253 6.88556 14.963C6.87023 14.2205 6.23421 13.5977 5.4754 13.5977C5.22249 13.5977 4.9922 13.6421 4.8006 13.7696C4.55534 13.9196 4.24868 13.9952 3.9881 13.9952C3.43639 13.995 2.90736 13.6948 2.62384 13.2149L2.09552 12.3155C1.81193 11.828 1.7963 11.2424 2.0799 10.7774C2.20254 10.5524 2.43261 10.3271 2.69318 10.1846C2.9076 10.0797 3.04538 9.90749 3.1756 9.70515C3.55883 9.06015 3.32905 8.21265 2.67755 7.83015C1.9189 7.4026 1.6743 6.44955 2.11115 5.70711L2.62384 4.82234C3.0684 4.07985 4.01949 3.81801 4.78595 4.25301C5.45268 4.61265 6.31893 4.3727 6.70978 3.73543C6.83238 3.52548 6.90084 3.30021 6.88556 3.07527C6.87023 2.78285 6.95484 2.50532 7.1004 2.28035C7.38397 1.8154 7.89739 1.51513 8.45685 1.50008H9.5379ZM9.00861 6.88484C7.80534 6.88494 6.83185 7.83045 6.83185 9.00789C6.83202 10.1852 7.80544 11.122 9.00861 11.1221C10.2119 11.1221 11.1627 10.1852 11.1629 9.00789C11.1629 7.83039 10.212 6.88484 9.00861 6.88484Z" fill="url(#paint0_linear_162_184)"/>
<defs>
<linearGradient id="paint0_linear_162_184" x1="8.99982" y1="1.50008" x2="8.99982" y2="16.5001" gradientUnits="userSpaceOnUse">
<stop stop-color="#0889F2"/>
<stop offset="1" stop-color="#40C89A"/>
</linearGradient>
</defs>
</svg>
