<svg width="15" height="15" viewBox="0 0 15 15" fill="none" xmlns="http://www.w3.org/2000/svg">
<path d="M7.66309 0C8.23021 6.18338e-05 8.74378 0.315319 9.02734 0.780273C9.16522 1.00523 9.25736 1.2828 9.23438 1.5752C9.2191 1.80014 9.28755 2.02541 9.41016 2.23535C9.80103 2.87267 10.6674 3.11267 11.3418 2.75293C12.1006 2.31793 13.0592 2.57978 13.4961 3.32227L14.0088 4.20703C14.4533 4.94947 14.2087 5.90253 13.4424 6.33008C12.7909 6.71256 12.5604 7.56009 12.9512 8.20508C13.0738 8.40752 13.2122 8.57956 13.4268 8.68457C13.695 8.82707 13.9022 9.05234 14.0479 9.27734C14.3314 9.74234 14.3082 10.3129 14.0322 10.8154L13.4961 11.7148C13.2125 12.1948 12.6829 12.4951 12.1387 12.4951C11.8705 12.495 11.5713 12.4195 11.3262 12.2695C11.1271 12.1423 10.8973 12.0977 10.6523 12.0977C9.89354 12.0977 9.25737 12.7204 9.23438 13.4629C9.23416 14.3252 8.52877 15 7.64746 15H6.60547C5.7165 15 5.01095 14.3252 5.01074 13.4629C4.99541 12.7204 4.35939 12.0977 3.60059 12.0977C3.34767 12.0977 3.11738 12.142 2.92578 12.2695C2.68052 12.4195 2.37386 12.4951 2.11328 12.4951C1.56157 12.495 1.03255 12.1947 0.749023 11.7148L0.220703 10.8154C-0.06289 10.3279 -0.078515 9.74234 0.205078 9.27734C0.327723 9.05237 0.55779 8.82705 0.818359 8.68457C1.03278 8.57961 1.17057 8.40741 1.30078 8.20508C1.68402 7.56008 1.45423 6.71258 0.802734 6.33008C0.0440814 5.90253 -0.200522 4.94947 0.236328 4.20703L0.749023 3.32227C1.19358 2.57978 2.14467 2.31793 2.91113 2.75293C3.57786 3.11258 4.44411 2.87263 4.83496 2.23535C4.95756 2.02541 5.02602 1.80014 5.01074 1.5752C4.99542 1.28277 5.08003 1.00524 5.22559 0.780273C5.50915 0.31532 6.02257 0.0150554 6.58203 0H7.66309ZM7.13379 5.38477C5.93052 5.38486 4.95703 6.33037 4.95703 7.50781C4.9572 8.68511 5.93063 9.62197 7.13379 9.62207C8.33704 9.62207 9.28792 8.68517 9.28809 7.50781C9.28809 6.33031 8.33714 5.38477 7.13379 5.38477Z" fill="#A6ABC8"/>
</svg>
